<?xml version="1.0" encoding="utf-8"?>
<!-- Generator: Adobe Illustrator 22.1.0, SVG Export Plug-In . SVG Version: 6.00 Build 0)  -->
<svg version="1.1" id="Layer_1" xmlns="http://www.w3.org/2000/svg" xmlns:xlink="http://www.w3.org/1999/xlink" x="0px" y="0px"
	 viewBox="0 0 1920 450" style="enable-background:new 0 0 1920 450;" xml:space="preserve">
<style type="text/css">
	.st0{clip-path:url(#SVGID_4_);fill-rule:evenodd;clip-rule:evenodd;fill:#FFFFFF;}
	.st1{clip-path:url(#SVGID_6_);}
	.st2{clip-path:url(#SVGID_8_);fill:#FFFFFF;}
	.st3{clip-path:url(#SVGID_12_);}
	.st4{clip-path:url(#SVGID_14_);fill-rule:evenodd;clip-rule:evenodd;fill:#FFFFFF;}
	.st5{clip-path:url(#SVGID_16_);}
	.st6{clip-path:url(#SVGID_18_);fill:#FFFFFF;}
	.st7{clip-path:url(#SVGID_22_);}
	.st8{clip-path:url(#SVGID_24_);fill-rule:evenodd;clip-rule:evenodd;fill:#FFFFFF;}
	.st9{clip-path:url(#SVGID_26_);}
	.st10{clip-path:url(#SVGID_28_);fill:#FFFFFF;}
	.st11{clip-path:url(#SVGID_32_);}
	.st12{clip-path:url(#SVGID_34_);fill-rule:evenodd;clip-rule:evenodd;fill:#FFFFFF;}
	.st13{clip-path:url(#SVGID_36_);}
	.st14{clip-path:url(#SVGID_38_);fill:#FFFFFF;}
</style>
<g>
	<g>
		<defs>
			<rect id="SVGID_1_" x="389.4" y="-5.7" width="1541.6" height="473.4"/>
		</defs>
		<clipPath id="SVGID_2_">
			<use xlink:href="#SVGID_1_"  style="overflow:visible;"/>
		</clipPath>
		<g style="clip-path:url(#SVGID_2_);">
			
				<image style="overflow:visible;" width="254" height="78" xlink:href="7A5FC0C1810B3A0C.png"  transform="matrix(6.0694 0 0 6.0694 389.3723 -5.7224)">
			</image>
		</g>
	</g>
	<g>
		<defs>
			<rect id="SVGID_3_" x="391.4" y="-5.4" width="1534.3" height="473"/>
		</defs>
		<clipPath id="SVGID_4_">
			<use xlink:href="#SVGID_3_"  style="overflow:visible;"/>
		</clipPath>
		<path class="st0" d="M-1222.4,305.4h-3.6c-6.9,11.1-16.2,19.8-27.8,26.3s-25,9.7-40,9.7c-27.8,0-48.6-8.5-62.2-25.6
			c-13.6-17.1-20.4-39.8-20.4-68.3V114.1h58.8v126.2c0,15.9,3.5,27.6,10.6,35.3c7,7.6,17.3,11.5,30.8,11.5c8.1,0,15.2-1.7,21.3-5.2
			c6.1-3.4,11.4-8.1,15.7-13.9s7.6-12.7,9.9-20.7c2.2-7.9,3.4-16.4,3.4-25.4V114.1h58.8v220.1h-55.2V305.4z M-1504.5,341.4
			c-14.4,0-27.2-1.8-38.4-5.4c-11.2-3.6-21-8.3-29.2-14.1c-8.2-5.8-15.2-12.6-20.9-20.2c-5.7-7.6-10-15.3-13-23.1l52.5-22.5
			c5.1,11.4,11.9,19.8,20.4,25.4c8.5,5.5,18,8.3,28.5,8.3c10.8,0,19.3-1.9,25.6-5.8c6.3-3.9,9.4-8.5,9.4-13.9c0-6-2.6-10.9-7.9-14.6
			c-5.2-3.7-14.3-7.1-27.2-10.1l-31-6.7c-6.9-1.5-14-3.9-21.3-7.2c-7.3-3.3-14-7.5-20-12.6c-6-5.1-10.9-11.2-14.8-18.4
			c-3.9-7.2-5.8-15.6-5.8-25.2c0-10.8,2.3-20.4,7-28.7c4.6-8.4,11-15.5,19.1-21.3c8.1-5.8,17.6-10.3,28.5-13.5
			c10.9-3.1,22.7-4.7,35.3-4.7c21,0,39.7,4.1,56.1,12.4s28.6,21.3,36.4,39.3l-50.8,20.7c-4.2-8.7-10.3-15-18.4-18.9
			c-8.1-3.9-16.2-5.8-24.3-5.8c-8.4,0-15.7,1.7-22,5.2c-6.3,3.4-9.4,7.9-9.4,13.2c0,5.1,2.6,9.1,7.9,12.1s12.4,5.7,21.3,8.1
			l33.7,8.1c22.5,5.4,39.1,14,50.1,25.8c10.9,11.8,16.4,25.8,16.4,42c0,9.6-2.2,18.7-6.7,27.4s-10.9,16.4-19.1,23.1
			c-8.2,6.7-18.1,12.1-29.6,15.9C-1477.6,339.4-1490.4,341.4-1504.5,341.4z M-1744.8,287c7.8,0,15.2-1.5,22.2-4.5
			c7-3,13.2-7.2,18.6-12.6c5.4-5.4,9.7-12,13-19.8c3.3-7.8,4.9-16.5,4.9-26c0-9.6-1.6-18.3-4.9-26c-3.3-7.8-7.6-14.4-13-19.8
			c-5.4-5.4-11.6-9.6-18.6-12.6s-14.4-4.5-22.2-4.5c-7.8,0-15.2,1.4-22.2,4.3s-13.2,7-18.6,12.4s-9.7,12-13,19.8
			c-3.3,7.8-4.9,16.6-4.9,26.5s1.6,18.7,4.9,26.5c3.3,7.8,7.6,14.4,13,19.8s11.6,9.5,18.6,12.4S-1752.6,287-1744.8,287z
			 M-1858.9,114.1h55.2v26.5h3.6c5.4-9.3,13.8-17.2,25.2-23.8c11.4-6.6,25.5-9.9,42.2-9.9c14.1,0,27.5,2.9,40.2,8.8
			c12.7,5.8,24,13.9,33.7,24.3c9.7,10.3,17.4,22.7,23.1,37.1c5.7,14.4,8.5,30.1,8.5,47.2c0,17.1-2.8,32.8-8.5,47.2
			c-5.7,14.4-13.4,26.7-23.1,37.1c-9.7,10.3-21,18.4-33.7,24.3c-12.7,5.8-26.1,8.8-40.2,8.8c-16.8,0-30.8-3.3-42.2-9.9
			c-11.4-6.6-19.8-14.5-25.2-23.8h-3.6l3.6,31.4v92.1h-58.8V114.1z M-2009.3,287c7.5,0,14.7-1.4,21.8-4.3c7-2.8,13.2-7,18.6-12.4
			s9.7-12,12.8-19.8c3.1-7.8,4.7-16.6,4.7-26.5s-1.6-18.7-4.7-26.5c-3.1-7.8-7.4-14.4-12.8-19.8s-11.6-9.5-18.6-12.4
			c-7-2.8-14.3-4.3-21.8-4.3c-7.8,0-15.1,1.4-22,4.3c-6.9,2.8-13,7-18.4,12.4s-9.7,12-12.8,19.8c-3.1,7.8-4.7,16.6-4.7,26.5
			s1.6,18.7,4.7,26.5c3.1,7.8,7.4,14.4,12.8,19.8s11.5,9.5,18.4,12.4C-2024.4,285.6-2017.1,287-2009.3,287z M-2009.3,106.9
			c17.1,0,32.7,2.9,46.9,8.8c14.2,5.8,26.5,13.9,36.8,24.3c10.3,10.3,18.4,22.7,24.3,37.1c5.8,14.4,8.8,30.1,8.8,47.2
			c0,17.1-2.9,32.8-8.8,47.2c-5.8,14.4-13.9,26.7-24.3,37.1c-10.3,10.3-22.6,18.4-36.8,24.3c-14.2,5.8-29.9,8.8-46.9,8.8
			c-17.1,0-32.7-2.9-46.9-8.8c-14.2-5.8-26.5-13.9-36.8-24.3c-10.3-10.3-18.4-22.7-24.3-37.1c-5.8-14.4-8.8-30.1-8.8-47.2
			c0-17.1,2.9-32.8,8.8-47.2c5.8-14.4,13.9-26.7,24.3-37.1c10.3-10.3,22.6-18.4,36.8-24.3C-2042,109.8-2026.4,106.9-2009.3,106.9z
			 M-2169.7,9c8.4,0,16.2,0.7,23.4,2.2c7.2,1.5,13.6,3.4,19.3,5.8l-16.6,52.5c-3-1.5-6.2-2.7-9.7-3.6c-3.4-0.9-7.7-1.3-12.8-1.3
			c-8.7,0-15.6,2.8-20.7,8.3c-5.1,5.5-7.6,13.2-7.6,23.1v18h54.8v50.3h-54.8v169.8h-58.8V164.4h-39.5v-50.3h39.5V92.5
			c0-13.5,2-25.4,6.1-35.7s9.8-19,17.3-26s16.3-12.4,26.5-16.2S-2181.9,9-2169.7,9z M-2476.4,142.8h3.6
			c6.9-11.1,16.2-19.8,27.8-26.3c11.7-6.4,25-9.7,40-9.7c13.8,0,25.9,2.2,36.4,6.7c10.5,4.5,19.1,10.9,25.8,19.1
			c6.7,8.2,11.8,18.1,15.3,29.6c3.4,11.5,5.2,24.3,5.2,38.4v133.4h-58.8V208c0-15.9-3.5-27.6-10.6-35.3c-7-7.6-17.3-11.5-30.8-11.5
			c-8.1,0-15.2,1.7-21.3,5.2c-6.1,3.4-11.4,8.1-15.7,13.9c-4.3,5.8-7.6,12.7-9.9,20.7c-2.2,7.9-3.4,16.4-3.4,25.4v107.8h-58.8V114.1
			h55.2V142.8z M-2644.4,334.2V114.1h58.8v220.1H-2644.4z M-2615.2,82.2c-5.1,0-10-1-14.6-2.9c-4.6-1.9-8.7-4.6-12.1-8.1
			c-3.4-3.4-6.1-7.4-8.1-11.9c-1.9-4.5-2.9-9.4-2.9-14.8c0-5.4,1-10.3,2.9-14.8c1.9-4.5,4.6-8.5,8.1-11.9c3.4-3.4,7.5-6.1,12.1-8.1
			c4.6-1.9,9.5-2.9,14.6-2.9c10.5,0,19.5,3.7,26.9,11c7.5,7.3,11.2,16.2,11.2,26.7c0,10.5-3.7,19.4-11.2,26.7
			C-2595.7,78.5-2604.7,82.2-2615.2,82.2z"/>
	</g>
	<g>
		<defs>
			<path id="SVGID_5_" d="M1846.1,305.4h-3.6c-6.9,11.1-16.2,19.8-27.8,26.3c-11.7,6.4-25,9.7-40,9.7c-27.8,0-48.6-8.5-62.2-25.6
				c-13.6-17.1-20.4-39.8-20.4-68.3V114.1h58.8v126.2c0,15.9,3.5,27.6,10.6,35.3c7,7.6,17.3,11.5,30.8,11.5c8.1,0,15.2-1.7,21.3-5.2
				c6.1-3.4,11.4-8.1,15.7-13.9s7.6-12.7,9.9-20.7c2.2-7.9,3.4-16.4,3.4-25.4V114.1h58.8v220.1h-55.2V305.4z M1564.1,341.4
				c-14.4,0-27.2-1.8-38.4-5.4c-11.2-3.6-21-8.3-29.2-14.1c-8.2-5.8-15.2-12.6-20.9-20.2c-5.7-7.6-10-15.3-13-23.1l52.5-22.5
				c5.1,11.4,11.9,19.8,20.4,25.4c8.5,5.5,18,8.3,28.5,8.3c10.8,0,19.3-1.9,25.6-5.8c6.3-3.9,9.4-8.5,9.4-13.9
				c0-6-2.6-10.9-7.9-14.6c-5.2-3.7-14.3-7.1-27.2-10.1l-31-6.7c-6.9-1.5-14-3.9-21.3-7.2c-7.3-3.3-14-7.5-20-12.6
				c-6-5.1-10.9-11.2-14.8-18.4c-3.9-7.2-5.8-15.6-5.8-25.2c0-10.8,2.3-20.4,7-28.7c4.6-8.4,11-15.5,19.1-21.3
				c8.1-5.8,17.6-10.3,28.5-13.5c10.9-3.1,22.7-4.7,35.3-4.7c21,0,39.7,4.1,56.1,12.4s28.6,21.3,36.4,39.3l-50.8,20.7
				c-4.2-8.7-10.3-15-18.4-18.9c-8.1-3.9-16.2-5.8-24.3-5.8c-8.4,0-15.7,1.7-22,5.2c-6.3,3.4-9.4,7.9-9.4,13.2
				c0,5.1,2.6,9.1,7.9,12.1c5.2,3,12.4,5.7,21.3,8.1l33.7,8.1c22.5,5.4,39.1,14,50.1,25.8c10.9,11.8,16.4,25.8,16.4,42
				c0,9.6-2.2,18.7-6.7,27.4c-4.5,8.7-10.9,16.4-19.1,23.1c-8.2,6.7-18.1,12.1-29.6,15.9C1591,339.4,1578.2,341.4,1564.1,341.4z
				 M1323.8,287c7.8,0,15.2-1.5,22.2-4.5c7-3,13.2-7.2,18.6-12.6c5.4-5.4,9.7-12,13-19.8c3.3-7.8,4.9-16.5,4.9-26
				c0-9.6-1.6-18.3-4.9-26c-3.3-7.8-7.6-14.4-13-19.8s-11.6-9.6-18.6-12.6s-14.4-4.5-22.2-4.5c-7.8,0-15.2,1.4-22.2,4.3
				s-13.2,7-18.6,12.4c-5.4,5.4-9.7,12-13,19.8c-3.3,7.8-4.9,16.6-4.9,26.5s1.6,18.7,4.9,26.5c3.3,7.8,7.6,14.4,13,19.8
				c5.4,5.4,11.6,9.5,18.6,12.4S1316,287,1323.8,287z M1209.7,114.1h55.2v26.5h3.6c5.4-9.3,13.8-17.2,25.2-23.8
				c11.4-6.6,25.5-9.9,42.2-9.9c14.1,0,27.5,2.9,40.2,8.8c12.7,5.8,24,13.9,33.7,24.3c9.7,10.3,17.4,22.7,23.1,37.1
				c5.7,14.4,8.5,30.1,8.5,47.2c0,17.1-2.8,32.8-8.5,47.2c-5.7,14.4-13.4,26.7-23.1,37.1c-9.7,10.3-21,18.4-33.7,24.3
				c-12.7,5.8-26.1,8.8-40.2,8.8c-16.8,0-30.8-3.3-42.2-9.9c-11.4-6.6-19.8-14.5-25.2-23.8h-3.6l3.6,31.4v92.1h-58.8V114.1z
				 M1059.3,287c7.5,0,14.7-1.4,21.8-4.3s13.2-7,18.6-12.4s9.7-12,12.8-19.8c3.1-7.8,4.7-16.6,4.7-26.5s-1.6-18.7-4.7-26.5
				c-3.1-7.8-7.4-14.4-12.8-19.8s-11.6-9.5-18.6-12.4s-14.3-4.3-21.8-4.3c-7.8,0-15.1,1.4-22,4.3s-13,7-18.4,12.4
				c-5.4,5.4-9.7,12-12.8,19.8c-3.1,7.8-4.7,16.6-4.7,26.5s1.6,18.7,4.7,26.5c3.1,7.8,7.4,14.4,12.8,19.8
				c5.4,5.4,11.5,9.5,18.4,12.4S1051.5,287,1059.3,287z M1059.3,106.9c17.1,0,32.7,2.9,46.9,8.8c14.2,5.8,26.5,13.9,36.8,24.3
				c10.3,10.3,18.4,22.7,24.3,37.1c5.8,14.4,8.8,30.1,8.8,47.2c0,17.1-2.9,32.8-8.8,47.2c-5.8,14.4-13.9,26.7-24.3,37.1
				c-10.3,10.3-22.6,18.4-36.8,24.3c-14.2,5.8-29.9,8.8-46.9,8.8c-17.1,0-32.7-2.9-46.9-8.8c-14.2-5.8-26.5-13.9-36.8-24.3
				c-10.3-10.3-18.4-22.7-24.3-37.1c-5.8-14.4-8.8-30.1-8.8-47.2c0-17.1,2.9-32.8,8.8-47.2c5.8-14.4,13.9-26.7,24.3-37.1
				c10.3-10.3,22.6-18.4,36.8-24.3C1026.6,109.8,1042.2,106.9,1059.3,106.9z M898.9,9c8.4,0,16.2,0.7,23.4,2.2
				c7.2,1.5,13.6,3.4,19.3,5.8L925,69.6c-3-1.5-6.2-2.7-9.7-3.6c-3.4-0.9-7.7-1.3-12.8-1.3c-8.7,0-15.6,2.8-20.7,8.3
				c-5.1,5.5-7.6,13.2-7.6,23.1v18H929v50.3h-54.8v169.8h-58.8V164.4h-39.5v-50.3h39.5V92.5c0-13.5,2-25.4,6.1-35.7s9.8-19,17.3-26
				c7.5-7,16.3-12.4,26.5-16.2C875.4,10.9,886.6,9,898.9,9z M592.2,142.8h3.6c6.9-11.1,16.2-19.8,27.8-26.3c11.7-6.4,25-9.7,40-9.7
				c13.8,0,25.9,2.2,36.4,6.7c10.5,4.5,19.1,10.9,25.8,19.1c6.7,8.2,11.8,18.1,15.3,29.6c3.4,11.5,5.2,24.3,5.2,38.4v133.4h-58.8
				V208c0-15.9-3.5-27.6-10.6-35.3s-17.3-11.5-30.8-11.5c-8.1,0-15.2,1.7-21.3,5.2c-6.1,3.4-11.4,8.1-15.7,13.9
				c-4.3,5.8-7.6,12.7-9.9,20.7c-2.2,7.9-3.4,16.4-3.4,25.4v107.8h-58.8V114.1h55.2V142.8z M424.2,334.2V114.1H483v220.1H424.2z
				 M453.4,82.2c-5.1,0-10-1-14.6-2.9c-4.6-1.9-8.7-4.6-12.1-8.1c-3.4-3.4-6.1-7.4-8.1-11.9c-1.9-4.5-2.9-9.4-2.9-14.8
				c0-5.4,1-10.3,2.9-14.8c1.9-4.5,4.6-8.5,8.1-11.9c3.4-3.4,7.5-6.1,12.1-8.1c4.6-1.9,9.5-2.9,14.6-2.9c10.5,0,19.5,3.7,26.9,11
				c7.5,7.3,11.2,16.2,11.2,26.7c0,10.5-3.7,19.4-11.2,26.7C472.8,78.5,463.9,82.2,453.4,82.2z"/>
		</defs>
		<clipPath id="SVGID_6_">
			<use xlink:href="#SVGID_5_"  style="overflow:visible;"/>
		</clipPath>
		<g class="st1">
			<defs>
				<rect id="SVGID_7_" x="-1904.9" y="-6900.6" width="5650.6" height="9019.1"/>
			</defs>
			<clipPath id="SVGID_8_">
				<use xlink:href="#SVGID_7_"  style="overflow:visible;"/>
			</clipPath>
			<rect x="385.3" y="-23.6" class="st2" width="1546.4" height="485.1"/>
		</g>
	</g>
	<g>
		<defs>
			<rect id="SVGID_9_" x="7" y="30.7" width="382.4" height="133.5"/>
		</defs>
		<clipPath id="SVGID_10_">
			<use xlink:href="#SVGID_9_"  style="overflow:visible;"/>
		</clipPath>
		<g style="clip-path:url(#SVGID_10_);">
			
				<image style="overflow:visible;" width="63" height="22" xlink:href="7A5FC0C1810B3A0D.png"  transform="matrix(6.0694 0 0 6.0694 7 30.694)">
			</image>
		</g>
	</g>
	<g>
		<defs>
			<rect id="SVGID_11_" x="10.7" y="35.4" width="376" height="124.5"/>
		</defs>
		<clipPath id="SVGID_12_">
			<use xlink:href="#SVGID_11_"  style="overflow:visible;"/>
		</clipPath>
		<g class="st3">
			<defs>
				<rect id="SVGID_13_" x="-1904.9" y="-6900.6" width="5650.6" height="9019.1"/>
			</defs>
			<clipPath id="SVGID_14_">
				<use xlink:href="#SVGID_13_"  style="overflow:visible;"/>
			</clipPath>
			<path class="st4" d="M350.3,376H130.2v-58.8h220.1V376z M98.3,346.8c0,5.1-1,10-2.9,14.6s-4.6,8.7-8.1,12.1
				c-3.4,3.4-7.4,6.1-11.9,8.1c-4.5,1.9-9.4,2.9-14.8,2.9c-5.4,0-10.3-1-14.8-2.9c-4.5-1.9-8.5-4.6-11.9-8.1
				c-3.4-3.4-6.1-7.5-8.1-12.1s-2.9-9.5-2.9-14.6c0-10.5,3.7-19.5,11-26.9s16.2-11.2,26.7-11.2c10.5,0,19.4,3.7,26.7,11.2
				S98.3,336.3,98.3,346.8z"/>
		</g>
	</g>
	<g>
		<defs>
			<path id="SVGID_15_" d="M350.3,127H130.2V68.2h220.1V127z M98.3,97.8c0,5.1-1,10-2.9,14.6c-1.9,4.6-4.6,8.7-8.1,12.1
				c-3.4,3.4-7.4,6.1-11.9,8.1c-4.5,1.9-9.4,2.9-14.8,2.9c-5.4,0-10.3-1-14.8-2.9c-4.5-1.9-8.5-4.6-11.9-8.1
				c-3.4-3.4-6.1-7.5-8.1-12.1c-1.9-4.6-2.9-9.5-2.9-14.6c0-10.5,3.7-19.5,11-26.9s16.2-11.2,26.7-11.2c10.5,0,19.4,3.7,26.7,11.2
				S98.3,87.4,98.3,97.8z"/>
		</defs>
		<clipPath id="SVGID_16_">
			<use xlink:href="#SVGID_15_"  style="overflow:visible;"/>
		</clipPath>
		<g class="st5">
			<defs>
				<rect id="SVGID_17_" x="-1904.9" y="-6900.6" width="5650.6" height="9019.1"/>
			</defs>
			<clipPath id="SVGID_18_">
				<use xlink:href="#SVGID_17_"  style="overflow:visible;"/>
			</clipPath>
			<rect x="-7.5" y="29.3" class="st6" width="388.1" height="136.6"/>
		</g>
	</g>
	<g>
		<defs>
			<rect id="SVGID_19_" x="7" y="133.9" width="382.4" height="133.5"/>
		</defs>
		<clipPath id="SVGID_20_">
			<use xlink:href="#SVGID_19_"  style="overflow:visible;"/>
		</clipPath>
		<g style="clip-path:url(#SVGID_20_);">
			
				<image style="overflow:visible;" width="63" height="22" xlink:href="7A5FC0C1810B3A0B.png"  transform="matrix(6.0694 0 0 6.0694 7 133.8738)">
			</image>
		</g>
	</g>
	<g>
		<defs>
			<rect id="SVGID_21_" x="10.7" y="138.6" width="376" height="124.5"/>
		</defs>
		<clipPath id="SVGID_22_">
			<use xlink:href="#SVGID_21_"  style="overflow:visible;"/>
		</clipPath>
		<g class="st7">
			<defs>
				<rect id="SVGID_23_" x="-1904.9" y="-6900.6" width="5650.6" height="9019.1"/>
			</defs>
			<clipPath id="SVGID_24_">
				<use xlink:href="#SVGID_23_"  style="overflow:visible;"/>
			</clipPath>
			<path class="st8" d="M350.3,479.1H130.2v-58.8h220.1V479.1z M98.3,449.9c0,5.1-1,10-2.9,14.6s-4.6,8.7-8.1,12.1
				s-7.4,6.1-11.9,8.1c-4.5,1.9-9.4,2.9-14.8,2.9c-5.4,0-10.3-1-14.8-2.9c-4.5-1.9-8.5-4.6-11.9-8.1s-6.1-7.5-8.1-12.1
				s-2.9-9.5-2.9-14.6c0-10.5,3.7-19.5,11-26.9s16.2-11.2,26.7-11.2c10.5,0,19.4,3.7,26.7,11.2S98.3,439.5,98.3,449.9z"/>
		</g>
	</g>
	<g>
		<defs>
			<path id="SVGID_25_" d="M350.3,230.2H130.2v-58.8h220.1V230.2z M98.3,201c0,5.1-1,10-2.9,14.6c-1.9,4.6-4.6,8.7-8.1,12.1
				c-3.4,3.4-7.4,6.1-11.9,8.1c-4.5,1.9-9.4,2.9-14.8,2.9c-5.4,0-10.3-1-14.8-2.9c-4.5-1.9-8.5-4.6-11.9-8.1
				c-3.4-3.4-6.1-7.5-8.1-12.1c-1.9-4.6-2.9-9.5-2.9-14.6c0-10.5,3.7-19.5,11-26.9s16.2-11.2,26.7-11.2c10.5,0,19.4,3.7,26.7,11.2
				S98.3,190.5,98.3,201z"/>
		</defs>
		<clipPath id="SVGID_26_">
			<use xlink:href="#SVGID_25_"  style="overflow:visible;"/>
		</clipPath>
		<g class="st9">
			<defs>
				<rect id="SVGID_27_" x="-1904.9" y="-6900.6" width="5650.6" height="9019.1"/>
			</defs>
			<clipPath id="SVGID_28_">
				<use xlink:href="#SVGID_27_"  style="overflow:visible;"/>
			</clipPath>
			<rect x="-7.5" y="132.5" class="st10" width="388.1" height="136.6"/>
		</g>
	</g>
	<g>
		<defs>
			<rect id="SVGID_29_" x="7" y="237.1" width="382.4" height="133.5"/>
		</defs>
		<clipPath id="SVGID_30_">
			<use xlink:href="#SVGID_29_"  style="overflow:visible;"/>
		</clipPath>
		<g transform="matrix(1 0 0 1 0 1.525879e-05)" style="clip-path:url(#SVGID_30_);">
			
				<image style="overflow:visible;" width="63" height="22" xlink:href="7A5FC0C1810B3A14.png"  transform="matrix(6.0694 0 0 6.0694 7 237.0536)">
			</image>
		</g>
	</g>
	<g>
		<defs>
			<rect id="SVGID_31_" x="10.7" y="241.8" width="376" height="124.5"/>
		</defs>
		<clipPath id="SVGID_32_">
			<use xlink:href="#SVGID_31_"  style="overflow:visible;"/>
		</clipPath>
		<g class="st11">
			<defs>
				<rect id="SVGID_33_" x="-1904.9" y="-6900.6" width="5650.6" height="9019.1"/>
			</defs>
			<clipPath id="SVGID_34_">
				<use xlink:href="#SVGID_33_"  style="overflow:visible;"/>
			</clipPath>
			<path class="st12" d="M350.3,582.3H130.2v-58.8h220.1V582.3z M98.3,553.1c0,5.1-1,10-2.9,14.6s-4.6,8.7-8.1,12.1
				s-7.4,6.1-11.9,8.1s-9.4,2.9-14.8,2.9c-5.4,0-10.3-1-14.8-2.9s-8.5-4.6-11.9-8.1s-6.1-7.5-8.1-12.1s-2.9-9.5-2.9-14.6
				c0-10.5,3.7-19.5,11-26.9s16.2-11.2,26.7-11.2c10.5,0,19.4,3.7,26.7,11.2S98.3,542.6,98.3,553.1z"/>
		</g>
	</g>
	<g>
		<defs>
			<path id="SVGID_35_" d="M350.3,333.4H130.2v-58.8h220.1V333.4z M98.3,304.2c0,5.1-1,10-2.9,14.6c-1.9,4.6-4.6,8.7-8.1,12.1
				s-7.4,6.1-11.9,8.1c-4.5,1.9-9.4,2.9-14.8,2.9c-5.4,0-10.3-1-14.8-2.9c-4.5-1.9-8.5-4.6-11.9-8.1s-6.1-7.5-8.1-12.1
				c-1.9-4.6-2.9-9.5-2.9-14.6c0-10.5,3.7-19.5,11-26.9c7.3-7.5,16.2-11.2,26.7-11.2c10.5,0,19.4,3.7,26.7,11.2
				C94.6,284.7,98.3,293.7,98.3,304.2z"/>
		</defs>
		<clipPath id="SVGID_36_">
			<use xlink:href="#SVGID_35_"  style="overflow:visible;"/>
		</clipPath>
		<g class="st13">
			<defs>
				<rect id="SVGID_37_" x="-1904.9" y="-6900.6" width="5650.6" height="9019.1"/>
			</defs>
			<clipPath id="SVGID_38_">
				<use xlink:href="#SVGID_37_"  style="overflow:visible;"/>
			</clipPath>
			<rect x="-7.5" y="235.7" class="st14" width="388.1" height="136.6"/>
		</g>
	</g>
</g>
</svg>
